<svg xmlns="http://www.w3.org/2000/svg" width="600" height="600" viewBox="0 0 600 600"><defs><g id="scene"><path d="M-40 520 L-17.184797451069638 509.10616750113786 L5.125170687300862 499.41738734638153 L26.957214383249887 490.80735093309056 L48.33864360491579 483.1497496586254 L69.29676832043698 476.3182749203459 L89.85889849795174 470.1866181156121 L110.05234410559856 464.6284706417843 L129.9044151115157 459.5175238962221 L149.4424214838416 454.72746927628583 L168.69367319071463 450.13199817933554 L187.68548020027305 445.60480200273093 L206.44515248065545 441.0195721438325 L225 436.25 L243.3773327264451 431.1697769685935 L261.60446062812923 425.6525944469731 L279.70869367319074 419.5721438324989 L297.71734182976786 412.8021165225307 L315.6577150659991 405.2162039144288 L333.5571233500227 396.68809740555304 L351.4428766499772 387.0914883932635 L369.3422849340009 376.30006827492036 L387.28265817023214 364.18752844788344 L405.29130632680926 350.627560309513 L423.39553937187077 335.4938552571689 L441.6226672735548 318.66010468821116 L460 300" fill="none" stroke="#4e9e64" stroke-width="2" stroke-linecap="round"/><g transform="translate(5.125170687300862,499.41738734638153) rotate(-78.47435768336948) scale(0.72)"><path d="M0 0 C7 -9 20 -10 27 -2 C20 6 7 6 0 0 Z" fill="#5aa663"/><path d="M3 0 L23 -2" stroke="#2c5f3e" stroke-width="1" fill="none" opacity=".55"/></g><g transform="translate(26.957214383249887,490.80735093309056) rotate(33.47690849462863) scale(0.62)"><path d="M0 0 C7 -9 20 -10 27 -2 C20 6 7 6 0 0 Z" fill="#5aa663"/><path d="M3 0 L23 -2" stroke="#2c5f3e" stroke-width="1" fill="none" opacity=".55"/></g><g transform="translate(48.33864360491579,483.1497496586254) rotate(-74.70461072864785) scale(0.67)"><path d="M0 0 C7 -9 20 -10 27 -2 C20 6 7 6 0 0 Z" fill="#5aa663"/><path d="M3 0 L23 -2" stroke="#2c5f3e" stroke-width="1" fill="none" opacity=".55"/></g><g transform="translate(69.29676832043698,476.3182749203459) rotate(36.94619121313417) scale(0.72)"><path d="M0 0 C7 -9 20 -10 27 -2 C20 6 7 6 0 0 Z" fill="#5aa663"/><path d="M3 0 L23 -2" stroke="#2c5f3e" stroke-width="1" fill="none" opacity=".55"/></g><g transform="translate(89.85889849795174,470.1866181156121) rotate(-71.604656246636) scale(0.62)"><path d="M0 0 C7 -9 20 -10 27 -2 C20 6 7 6 0 0 Z" fill="#5aa663"/><path d="M3 0 L23 -2" stroke="#2c5f3e" stroke-width="1" fill="none" opacity=".55"/></g><g transform="translate(110.05234410559856,464.6284706417843) rotate(39.61069235557086) scale(0.67)"><path d="M0 0 C7 -9 20 -10 27 -2 C20 6 7 6 0 0 Z" fill="#5aa663"/><path d="M3 0 L23 -2" stroke="#2c5f3e" stroke-width="1" fill="none" opacity=".55"/></g><g transform="translate(129.9044151115157,459.5175238962221) rotate(-69.43736252596217) scale(0.72)"><path d="M0 0 C7 -9 20 -10 27 -2 C20 6 7 6 0 0 Z" fill="#5aa663"/><path d="M3 0 L23 -2" stroke="#2c5f3e" stroke-width="1" fill="none" opacity=".55"/></g><g transform="translate(149.4424214838416,454.72746927628583) rotate(41.22472782768605) scale(0.62)"><path d="M0 0 C7 -9 20 -10 27 -2 C20 6 7 6 0 0 Z" fill="#5aa663"/><path d="M3 0 L23 -2" stroke="#2c5f3e" stroke-width="1" fill="none" opacity=".55"/></g><g transform="translate(168.69367319071463,450.13199817933554) rotate(-68.42584025711767) scale(0.67)"><path d="M0 0 C7 -9 20 -10 27 -2 C20 6 7 6 0 0 Z" fill="#5aa663"/><path d="M3 0 L23 -2" stroke="#2c5f3e" stroke-width="1" fill="none" opacity=".55"/></g><g transform="translate(187.68548020027305,445.60480200273093) rotate(41.59226493306817) scale(0.72)"><path d="M0 0 C7 -9 20 -10 27 -2 C20 6 7 6 0 0 Z" fill="#5aa663"/><path d="M3 0 L23 -2" stroke="#2c5f3e" stroke-width="1" fill="none" opacity=".55"/></g><g transform="translate(206.44515248065545,441.0195721438325) rotate(-68.73492007446485) scale(0.62)"><path d="M0 0 C7 -9 20 -10 27 -2 C20 6 7 6 0 0 Z" fill="#5aa663"/><path d="M3 0 L23 -2" stroke="#2c5f3e" stroke-width="1" fill="none" opacity=".55"/></g><g transform="translate(225,436.25) rotate(40.58407659335072) scale(0.67)"><path d="M0 0 C7 -9 20 -10 27 -2 C20 6 7 6 0 0 Z" fill="#5aa663"/><path d="M3 0 L23 -2" stroke="#2c5f3e" stroke-width="1" fill="none" opacity=".55"/></g><g transform="translate(243.3773327264451,431.1697769685935) rotate(-70.45290829804416) scale(0.72)"><path d="M0 0 C7 -9 20 -10 27 -2 C20 6 7 6 0 0 Z" fill="#5aa663"/><path d="M3 0 L23 -2" stroke="#2c5f3e" stroke-width="1" fill="none" opacity=".55"/></g><g transform="translate(261.60446062812923,425.6525944469731) rotate(38.15942304191158) scale(0.62)"><path d="M0 0 C7 -9 20 -10 27 -2 C20 6 7 6 0 0 Z" fill="#5aa663"/><path d="M3 0 L23 -2" stroke="#2c5f3e" stroke-width="1" fill="none" opacity=".55"/></g><g transform="translate(279.70869367319074,419.5721438324989) rotate(-73.56503501599403) scale(0.67)"><path d="M0 0 C7 -9 20 -10 27 -2 C20 6 7 6 0 0 Z" fill="#5aa663"/><path d="M3 0 L23 -2" stroke="#2c5f3e" stroke-width="1" fill="none" opacity=".55"/></g><g transform="translate(297.71734182976786,412.8021165225307) rotate(34.39715245252657) scale(0.72)"><path d="M0 0 C7 -9 20 -10 27 -2 C20 6 7 6 0 0 Z" fill="#5aa663"/><path d="M3 0 L23 -2" stroke="#2c5f3e" stroke-width="1" fill="none" opacity=".55"/></g><g transform="translate(315.6577150659991,405.2162039144288) rotate(-77.92059972514285) scale(0.62)"><path d="M0 0 C7 -9 20 -10 27 -2 C20 6 7 6 0 0 Z" fill="#5aa663"/><path d="M3 0 L23 -2" stroke="#2c5f3e" stroke-width="1" fill="none" opacity=".55"/></g><g transform="translate(333.5571233500227,396.68809740555304) rotate(29.52470874529948) scale(0.67)"><path d="M0 0 C7 -9 20 -10 27 -2 C20 6 7 6 0 0 Z" fill="#5aa663"/><path d="M3 0 L23 -2" stroke="#2c5f3e" stroke-width="1" fill="none" opacity=".55"/></g><g transform="translate(351.4428766499772,387.0914883932635) rotate(-83.21580260910308) scale(0.72)"><path d="M0 0 C7 -9 20 -10 27 -2 C20 6 7 6 0 0 Z" fill="#5aa663"/><path d="M3 0 L23 -2" stroke="#2c5f3e" stroke-width="1" fill="none" opacity=".55"/></g><g transform="translate(369.3422849340009,376.30006827492036) rotate(23.914537497978092) scale(0.62)"><path d="M0 0 C7 -9 20 -10 27 -2 C20 6 7 6 0 0 Z" fill="#5aa663"/><path d="M3 0 L23 -2" stroke="#2c5f3e" stroke-width="1" fill="none" opacity=".55"/></g><g transform="translate(387.28265817023214,364.18752844788344) rotate(-89.02546625621639) scale(0.67)"><path d="M0 0 C7 -9 20 -10 27 -2 C20 6 7 6 0 0 Z" fill="#5aa663"/><path d="M3 0 L23 -2" stroke="#2c5f3e" stroke-width="1" fill="none" opacity=".55"/></g><g transform="translate(405.29130632680926,350.627560309513) rotate(18.021357144603506) scale(0.72)"><path d="M0 0 C7 -9 20 -10 27 -2 C20 6 7 6 0 0 Z" fill="#5aa663"/><path d="M3 0 L23 -2" stroke="#2c5f3e" stroke-width="1" fill="none" opacity=".55"/></g><g transform="translate(423.39553937187077,335.4938552571689) rotate(-94.89295232850078) scale(0.62)"><path d="M0 0 C7 -9 20 -10 27 -2 C20 6 7 6 0 0 Z" fill="#5aa663"/><path d="M3 0 L23 -2" stroke="#2c5f3e" stroke-width="1" fill="none" opacity=".55"/></g><g transform="translate(441.6226672735548,318.66010468821116) rotate(12.27583145219478) scale(0.67)"><path d="M0 0 C7 -9 20 -10 27 -2 C20 6 7 6 0 0 Z" fill="#5aa663"/><path d="M3 0 L23 -2" stroke="#2c5f3e" stroke-width="1" fill="none" opacity=".55"/></g><path d="M620 90 L598.4666590805643 99.73827947200729 L577.6741010468822 108.2612653618571 L557.564292216659 115.68502503413742 L538.0791989076013 122.1256258534365 L519.1607874374147 127.6991351843423 L500.75102412380517 132.52162039144287 L482.791875284479 136.7091488393264 L465.22530723714146 140.37778789258078 L447.99328629949935 143.64360491579427 L431.0377787892581 146.6226672735549 L414.3007510241237 149.43104233045057 L397.72416932180244 152.18479745106964 L381.25 155 L364.82020937642244 157.99271734182975 L348.3767637687756 161.27901684114704 L331.86162949476557 164.97496586253985 L315.2167728720983 169.19663177059624 L298.38416021847974 174.0600819299044 L281.3057578516158 179.68138370505233 L263.92353208921253 186.17660446062814 L246.17944924897586 193.66181156121985 L228.01547564861175 202.25307237141556 L209.37357760582614 212.06645425580336 L190.19572143832497 223.21802457897138 L170.4238734638143 235.8238507055075 L150 250" fill="none" stroke="#4e9e64" stroke-width="2" stroke-linecap="round"/><g transform="translate(577.6741010468822,108.2612653618571) rotate(102.71100155609818) scale(0.72)"><path d="M0 0 C7 -9 20 -10 27 -2 C20 6 7 6 0 0 Z" fill="#5aa663"/><path d="M3 0 L23 -2" stroke="#2c5f3e" stroke-width="1" fill="none" opacity=".55"/></g><g transform="translate(557.564292216659,115.68502503413742) rotate(214.73781413767824) scale(0.62)"><path d="M0 0 C7 -9 20 -10 27 -2 C20 6 7 6 0 0 Z" fill="#5aa663"/><path d="M3 0 L23 -2" stroke="#2c5f3e" stroke-width="1" fill="none" opacity=".55"/></g><g transform="translate(538.0791989076013,122.1256258534365) rotate(106.70921836846608) scale(0.67)"><path d="M0 0 C7 -9 20 -10 27 -2 C20 6 7 6 0 0 Z" fill="#5aa663"/><path d="M3 0 L23 -2" stroke="#2c5f3e" stroke-width="1" fill="none" opacity=".55"/></g><g transform="translate(519.1607874374147,127.6991351843423) rotate(218.5846216401396) scale(0.72)"><path d="M0 0 C7 -9 20 -10 27 -2 C20 6 7 6 0 0 Z" fill="#5aa663"/><path d="M3 0 L23 -2" stroke="#2c5f3e" stroke-width="1" fill="none" opacity=".55"/></g><g transform="translate(500.75102412380517,132.52162039144287) rotate(110.32104237506127) scale(0.62)"><path d="M0 0 C7 -9 20 -10 27 -2 C20 6 7 6 0 0 Z" fill="#5aa663"/><path d="M3 0 L23 -2" stroke="#2c5f3e" stroke-width="1" fill="none" opacity=".55"/></g><g transform="translate(482.791875284479,136.7091488393264) rotate(221.87487214787166) scale(0.67)"><path d="M0 0 C7 -9 20 -10 27 -2 C20 6 7 6 0 0 Z" fill="#5aa663"/><path d="M3 0 L23 -2" stroke="#2c5f3e" stroke-width="1" fill="none" opacity=".55"/></g><g transform="translate(465.22530723714146,140.37778789258078) rotate(113.20377600620728) scale(0.72)"><path d="M0 0 C7 -9 20 -10 27 -2 C20 6 7 6 0 0 Z" fill="#5aa663"/><path d="M3 0 L23 -2" stroke="#2c5f3e" stroke-width="1" fill="none" opacity=".55"/></g><g transform="translate(447.99328629949935,143.64360491579427) rotate(224.26856482025872) scale(0.62)"><path d="M0 0 C7 -9 20 -10 27 -2 C20 6 7 6 0 0 Z" fill="#5aa663"/><path d="M3 0 L23 -2" stroke="#2c5f3e" stroke-width="1" fill="none" opacity=".55"/></g><g transform="translate(431.0377787892581,146.6226672735549) rotate(115.03491044046743) scale(0.67)"><path d="M0 0 C7 -9 20 -10 27 -2 C20 6 7 6 0 0 Z" fill="#5aa663"/><path d="M3 0 L23 -2" stroke="#2c5f3e" stroke-width="1" fill="none" opacity=".55"/></g><g transform="translate(414.3007510241237,149.43104233045057) rotate(225.4748361846426) scale(0.72)"><path d="M0 0 C7 -9 20 -10 27 -2 C20 6 7 6 0 0 Z" fill="#5aa663"/><path d="M3 0 L23 -2" stroke="#2c5f3e" stroke-width="1" fill="none" opacity=".55"/></g><g transform="translate(397.72416932180244,152.18479745106964) rotate(115.56797614180095) scale(0.62)"><path d="M0 0 C7 -9 20 -10 27 -2 C20 6 7 6 0 0 Z" fill="#5aa663"/><path d="M3 0 L23 -2" stroke="#2c5f3e" stroke-width="1" fill="none" opacity=".55"/></g><g transform="translate(381.25,155) rotate(225.3026316710881) scale(0.67)"><path d="M0 0 C7 -9 20 -10 27 -2 C20 6 7 6 0 0 Z" fill="#5aa663"/><path d="M3 0 L23 -2" stroke="#2c5f3e" stroke-width="1" fill="none" opacity=".55"/></g><g transform="translate(364.82020937642244,157.99271734182975) rotate(114.6766466356072) scale(0.72)"><path d="M0 0 C7 -9 20 -10 27 -2 C20 6 7 6 0 0 Z" fill="#5aa663"/><path d="M3 0 L23 -2" stroke="#2c5f3e" stroke-width="1" fill="none" opacity=".55"/></g><g transform="translate(348.3767637687756,161.27901684114704) rotate(223.6980739363838) scale(0.62)"><path d="M0 0 C7 -9 20 -10 27 -2 C20 6 7 6 0 0 Z" fill="#5aa663"/><path d="M3 0 L23 -2" stroke="#2c5f3e" stroke-width="1" fill="none" opacity=".55"/></g><g transform="translate(331.86162949476557,164.97496586253985) rotate(112.38553126254214) scale(0.67)"><path d="M0 0 C7 -9 20 -10 27 -2 C20 6 7 6 0 0 Z" fill="#5aa663"/><path d="M3 0 L23 -2" stroke="#2c5f3e" stroke-width="1" fill="none" opacity=".55"/></g><g transform="translate(315.2167728720983,169.19663177059624) rotate(220.76807498581906) scale(0.72)"><path d="M0 0 C7 -9 20 -10 27 -2 C20 6 7 6 0 0 Z" fill="#5aa663"/><path d="M3 0 L23 -2" stroke="#2c5f3e" stroke-width="1" fill="none" opacity=".55"/></g><g transform="translate(298.38416021847974,174.0600819299044) rotate(108.88439710189186) scale(0.62)"><path d="M0 0 C7 -9 20 -10 27 -2 C20 6 7 6 0 0 Z" fill="#5aa663"/><path d="M3 0 L23 -2" stroke="#2c5f3e" stroke-width="1" fill="none" opacity=".55"/></g><g transform="translate(281.3057578516158,179.68138370505233) rotate(216.78120438679926) scale(0.67)"><path d="M0 0 C7 -9 20 -10 27 -2 C20 6 7 6 0 0 Z" fill="#5aa663"/><path d="M3 0 L23 -2" stroke="#2c5f3e" stroke-width="1" fill="none" opacity=".55"/></g><g transform="translate(263.92353208921253,186.17660446062814) rotate(104.5107795388943) scale(0.72)"><path d="M0 0 C7 -9 20 -10 27 -2 C20 6 7 6 0 0 Z" fill="#5aa663"/><path d="M3 0 L23 -2" stroke="#2c5f3e" stroke-width="1" fill="none" opacity=".55"/></g><g transform="translate(246.17944924897586,193.66181156121985) rotate(212.12791879089212) scale(0.62)"><path d="M0 0 C7 -9 20 -10 27 -2 C20 6 7 6 0 0 Z" fill="#5aa663"/><path d="M3 0 L23 -2" stroke="#2c5f3e" stroke-width="1" fill="none" opacity=".55"/></g><g transform="translate(228.01547564861175,202.25307237141556) rotate(99.68662072276732) scale(0.67)"><path d="M0 0 C7 -9 20 -10 27 -2 C20 6 7 6 0 0 Z" fill="#5aa663"/><path d="M3 0 L23 -2" stroke="#2c5f3e" stroke-width="1" fill="none" opacity=".55"/></g><g transform="translate(209.37357760582614,212.06645425580336) rotate(207.23699113315553) scale(0.72)"><path d="M0 0 C7 -9 20 -10 27 -2 C20 6 7 6 0 0 Z" fill="#5aa663"/><path d="M3 0 L23 -2" stroke="#2c5f3e" stroke-width="1" fill="none" opacity=".55"/></g><g transform="translate(190.19572143832497,223.21802457897138) rotate(94.82278709176614) scale(0.62)"><path d="M0 0 C7 -9 20 -10 27 -2 C20 6 7 6 0 0 Z" fill="#5aa663"/><path d="M3 0 L23 -2" stroke="#2c5f3e" stroke-width="1" fill="none" opacity=".55"/></g><g transform="translate(170.4238734638143,235.8238507055075) rotate(202.47986640538977) scale(0.67)"><path d="M0 0 C7 -9 20 -10 27 -2 C20 6 7 6 0 0 Z" fill="#5aa663"/><path d="M3 0 L23 -2" stroke="#2c5f3e" stroke-width="1" fill="none" opacity=".55"/></g><path d="M300 640 L308.9300411522633 617.2050754458161 L315.8847736625514 595.4183813443072 L321.11111111111114 574.5370370370371 L324.85596707818934 554.4581618655692 L327.3662551440329 535.0788751714678 L328.88888888888886 516.2962962962963 L329.6707818930042 498.00754458161873 L329.95884773662556 480.10973936899865 L330 462.5 L330.0411522633745 445.0754458161866 L330.3292181069959 427.7331961591221 L331.1111111111111 410.37037037037044 L332.6337448559671 392.8840877914952 L335.1440329218107 375.17146776406037 L338.8888888888889 357.1296296296296 L344.1152263374486 338.6556927297668 L351.06995884773664 319.64677640603566 L360 300" fill="none" stroke="#4e9e64" stroke-width="2" stroke-linecap="round"/><g transform="translate(315.8847736625514,595.4183813443072) rotate(-127.2959151561942) scale(0.72)"><path d="M0 0 C7 -9 20 -10 27 -2 C20 6 7 6 0 0 Z" fill="#5aa663"/><path d="M3 0 L23 -2" stroke="#2c5f3e" stroke-width="1" fill="none" opacity=".55"/></g><g transform="translate(321.11111111111114,574.5370370370371) rotate(-20.94825921959999) scale(0.62)"><path d="M0 0 C7 -9 20 -10 27 -2 C20 6 7 6 0 0 Z" fill="#5aa663"/><path d="M3 0 L23 -2" stroke="#2c5f3e" stroke-width="1" fill="none" opacity=".55"/></g><g transform="translate(324.85596707818934,554.4581618655692) rotate(-134.43530270334628) scale(0.67)"><path d="M0 0 C7 -9 20 -10 27 -2 C20 6 7 6 0 0 Z" fill="#5aa663"/><path d="M3 0 L23 -2" stroke="#2c5f3e" stroke-width="1" fill="none" opacity=".55"/></g><g transform="translate(327.3662551440329,535.0788751714678) rotate(-27.619311974139933) scale(0.72)"><path d="M0 0 C7 -9 20 -10 27 -2 C20 6 7 6 0 0 Z" fill="#5aa663"/><path d="M3 0 L23 -2" stroke="#2c5f3e" stroke-width="1" fill="none" opacity=".55"/></g><g transform="translate(328.88888888888886,516.2962962962963) rotate(-140.36537923657352) scale(0.62)"><path d="M0 0 C7 -9 20 -10 27 -2 C20 6 7 6 0 0 Z" fill="#5aa663"/><path d="M3 0 L23 -2" stroke="#2c5f3e" stroke-width="1" fill="none" opacity=".55"/></g><g transform="translate(329.6707818930042,498.00754458161873) rotate(-32.5519431148888) scale(0.67)"><path d="M0 0 C7 -9 20 -10 27 -2 C20 6 7 6 0 0 Z" fill="#5aa663"/><path d="M3 0 L23 -2" stroke="#2c5f3e" stroke-width="1" fill="none" opacity=".55"/></g><g transform="translate(329.95884773662556,480.10973936899865) rotate(-144.07790190570813) scale(0.72)"><path d="M0 0 C7 -9 20 -10 27 -2 C20 6 7 6 0 0 Z" fill="#5aa663"/><path d="M3 0 L23 -2" stroke="#2c5f3e" stroke-width="1" fill="none" opacity=".55"/></g><g transform="translate(330,462.5) rotate(-34.86610553017249) scale(0.62)"><path d="M0 0 C7 -9 20 -10 27 -2 C20 6 7 6 0 0 Z" fill="#5aa663"/><path d="M3 0 L23 -2" stroke="#2c5f3e" stroke-width="1" fill="none" opacity=".55"/></g><g transform="translate(330.0411522633745,445.0754458161866) rotate(-144.86468252788418) scale(0.67)"><path d="M0 0 C7 -9 20 -10 27 -2 C20 6 7 6 0 0 Z" fill="#5aa663"/><path d="M3 0 L23 -2" stroke="#2c5f3e" stroke-width="1" fill="none" opacity=".55"/></g><g transform="translate(330.3292181069959,427.7331961591221) rotate(-34.0483680226142) scale(0.72)"><path d="M0 0 C7 -9 20 -10 27 -2 C20 6 7 6 0 0 Z" fill="#5aa663"/><path d="M3 0 L23 -2" stroke="#2c5f3e" stroke-width="1" fill="none" opacity=".55"/></g><g transform="translate(331.1111111111111,410.37037037037044) rotate(-142.42156471238502) scale(0.62)"><path d="M0 0 C7 -9 20 -10 27 -2 C20 6 7 6 0 0 Z" fill="#5aa663"/><path d="M3 0 L23 -2" stroke="#2c5f3e" stroke-width="1" fill="none" opacity=".55"/></g><g transform="translate(332.6337448559671,392.8840877914952) rotate(-30.023470959703772) scale(0.67)"><path d="M0 0 C7 -9 20 -10 27 -2 C20 6 7 6 0 0 Z" fill="#5aa663"/><path d="M3 0 L23 -2" stroke="#2c5f3e" stroke-width="1" fill="none" opacity=".55"/></g><g transform="translate(335.1440329218107,375.17146776406037) rotate(-136.933582033098) scale(0.72)"><path d="M0 0 C7 -9 20 -10 27 -2 C20 6 7 6 0 0 Z" fill="#5aa663"/><path d="M3 0 L23 -2" stroke="#2c5f3e" stroke-width="1" fill="none" opacity=".55"/></g><g transform="translate(338.8888888888889,357.1296296296296) rotate(-23.273902996619427) scale(0.62)"><path d="M0 0 C7 -9 20 -10 27 -2 C20 6 7 6 0 0 Z" fill="#5aa663"/><path d="M3 0 L23 -2" stroke="#2c5f3e" stroke-width="1" fill="none" opacity=".55"/></g><g transform="translate(344.1152263374486,338.6556927297668) rotate(-129.2036174939526) scale(0.67)"><path d="M0 0 C7 -9 20 -10 27 -2 C20 6 7 6 0 0 Z" fill="#5aa663"/><path d="M3 0 L23 -2" stroke="#2c5f3e" stroke-width="1" fill="none" opacity=".55"/></g><g transform="translate(351.06995884773664,319.64677640603566) rotate(-14.904101758508972) scale(0.72)"><path d="M0 0 C7 -9 20 -10 27 -2 C20 6 7 6 0 0 Z" fill="#5aa663"/><path d="M3 0 L23 -2" stroke="#2c5f3e" stroke-width="1" fill="none" opacity=".55"/></g><g transform="translate(430,300) rotate(0) scale(1.35)"><g>
   <g fill="#cf8f93"><path transform="rotate(0)" d="M0 0 C-9 -5 -9 -19 0 -24 C9 -19 9 -5 0 0 Z"/><path transform="rotate(72)" d="M0 0 C-9 -5 -9 -19 0 -24 C9 -19 9 -5 0 0 Z"/><path transform="rotate(144)" d="M0 0 C-9 -5 -9 -19 0 -24 C9 -19 9 -5 0 0 Z"/><path transform="rotate(216)" d="M0 0 C-9 -5 -9 -19 0 -24 C9 -19 9 -5 0 0 Z"/><path transform="rotate(288)" d="M0 0 C-9 -5 -9 -19 0 -24 C9 -19 9 -5 0 0 Z"/></g>
   <g fill="#b06a72"><path transform="rotate(36)" d="M0 0 C-6 -3 -6 -13 0 -16 C6 -13 6 -3 0 0 Z"/><path transform="rotate(108)" d="M0 0 C-6 -3 -6 -13 0 -16 C6 -13 6 -3 0 0 Z"/><path transform="rotate(180)" d="M0 0 C-6 -3 -6 -13 0 -16 C6 -13 6 -3 0 0 Z"/><path transform="rotate(252)" d="M0 0 C-6 -3 -6 -13 0 -16 C6 -13 6 -3 0 0 Z"/><path transform="rotate(324)" d="M0 0 C-6 -3 -6 -13 0 -16 C6 -13 6 -3 0 0 Z"/></g>
   <circle r="4.2" fill="#e6c061"/></g></g><g transform="translate(150,250) rotate(0) scale(1)"><g>
   <g fill="#cf8f93"><path transform="rotate(0)" d="M0 0 C-9 -5 -9 -19 0 -24 C9 -19 9 -5 0 0 Z"/><path transform="rotate(72)" d="M0 0 C-9 -5 -9 -19 0 -24 C9 -19 9 -5 0 0 Z"/><path transform="rotate(144)" d="M0 0 C-9 -5 -9 -19 0 -24 C9 -19 9 -5 0 0 Z"/><path transform="rotate(216)" d="M0 0 C-9 -5 -9 -19 0 -24 C9 -19 9 -5 0 0 Z"/><path transform="rotate(288)" d="M0 0 C-9 -5 -9 -19 0 -24 C9 -19 9 -5 0 0 Z"/></g>
   <g fill="#b06a72"><path transform="rotate(36)" d="M0 0 C-6 -3 -6 -13 0 -16 C6 -13 6 -3 0 0 Z"/><path transform="rotate(108)" d="M0 0 C-6 -3 -6 -13 0 -16 C6 -13 6 -3 0 0 Z"/><path transform="rotate(180)" d="M0 0 C-6 -3 -6 -13 0 -16 C6 -13 6 -3 0 0 Z"/><path transform="rotate(252)" d="M0 0 C-6 -3 -6 -13 0 -16 C6 -13 6 -3 0 0 Z"/><path transform="rotate(324)" d="M0 0 C-6 -3 -6 -13 0 -16 C6 -13 6 -3 0 0 Z"/></g>
   <circle r="4.2" fill="#e6c061"/></g></g><g transform="translate(300,300) rotate(8) scale(1)"><g>
   <path d="M0 0 C2 18 2 30 0 40" stroke="#4e9e64" stroke-width="1.6" fill="none" stroke-linecap="round"/>
   <path d="M-1 40 C-14 36 -21 23 -17 12 C-9 21 -7 21 -1 40 Z" fill="#5aa663"/>
   <path d="M1 40 C14 36 21 23 17 12 C9 21 7 21 1 40 Z" fill="#5aa663"/>
   <path d="M0 2 C-11 -1 -13 -16 -9 -27 C-5 -18 -4 -18 0 -27 C4 -18 5 -18 9 -27 C13 -16 11 -1 0 2 Z" fill="#d68a55"/>
   <path d="M0 0 C-3 -11 -3 -20 0 -27 C3 -20 3 -11 0 0 Z" fill="#b4703c"/></g></g><g transform="translate(95,470) rotate(-10) scale(0.95)"><g>
   <path d="M0 0 C2 18 2 30 0 40" stroke="#4e9e64" stroke-width="1.6" fill="none" stroke-linecap="round"/>
   <path d="M-1 40 C-14 36 -21 23 -17 12 C-9 21 -7 21 -1 40 Z" fill="#5aa663"/>
   <path d="M1 40 C14 36 21 23 17 12 C9 21 7 21 1 40 Z" fill="#5aa663"/>
   <path d="M0 2 C-11 -1 -13 -16 -9 -27 C-5 -18 -4 -18 0 -27 C4 -18 5 -18 9 -27 C13 -16 11 -1 0 2 Z" fill="#d68a55"/>
   <path d="M0 0 C-3 -11 -3 -20 0 -27 C3 -20 3 -11 0 0 Z" fill="#b4703c"/></g></g><g transform="translate(470,470) rotate(0) scale(1.1)"><g>
   <g fill="#aebbd0"><ellipse transform="rotate(0)" cx="0" cy="-12" rx="3" ry="9"/><ellipse transform="rotate(30)" cx="0" cy="-12" rx="3" ry="9"/><ellipse transform="rotate(60)" cx="0" cy="-12" rx="3" ry="9"/><ellipse transform="rotate(90)" cx="0" cy="-12" rx="3" ry="9"/><ellipse transform="rotate(120)" cx="0" cy="-12" rx="3" ry="9"/><ellipse transform="rotate(150)" cx="0" cy="-12" rx="3" ry="9"/><ellipse transform="rotate(180)" cx="0" cy="-12" rx="3" ry="9"/><ellipse transform="rotate(210)" cx="0" cy="-12" rx="3" ry="9"/><ellipse transform="rotate(240)" cx="0" cy="-12" rx="3" ry="9"/><ellipse transform="rotate(270)" cx="0" cy="-12" rx="3" ry="9"/><ellipse transform="rotate(300)" cx="0" cy="-12" rx="3" ry="9"/><ellipse transform="rotate(330)" cx="0" cy="-12" rx="3" ry="9"/></g>
   <circle r="5" fill="#e0b85a"/></g></g><g transform="translate(210,120) rotate(0) scale(0.9)"><g>
   <g fill="#aebbd0"><ellipse transform="rotate(0)" cx="0" cy="-12" rx="3" ry="9"/><ellipse transform="rotate(30)" cx="0" cy="-12" rx="3" ry="9"/><ellipse transform="rotate(60)" cx="0" cy="-12" rx="3" ry="9"/><ellipse transform="rotate(90)" cx="0" cy="-12" rx="3" ry="9"/><ellipse transform="rotate(120)" cx="0" cy="-12" rx="3" ry="9"/><ellipse transform="rotate(150)" cx="0" cy="-12" rx="3" ry="9"/><ellipse transform="rotate(180)" cx="0" cy="-12" rx="3" ry="9"/><ellipse transform="rotate(210)" cx="0" cy="-12" rx="3" ry="9"/><ellipse transform="rotate(240)" cx="0" cy="-12" rx="3" ry="9"/><ellipse transform="rotate(270)" cx="0" cy="-12" rx="3" ry="9"/><ellipse transform="rotate(300)" cx="0" cy="-12" rx="3" ry="9"/><ellipse transform="rotate(330)" cx="0" cy="-12" rx="3" ry="9"/></g>
   <circle r="5" fill="#e0b85a"/></g></g><g transform="translate(360,150) rotate(0) scale(1.1)"><g>
   <g fill="#d6856a"><path transform="rotate(0)" d="M0 0 C-11 -3 -13 -15 0 -18 C13 -15 11 -3 0 0 Z"/><path transform="rotate(90)" d="M0 0 C-11 -3 -13 -15 0 -18 C13 -15 11 -3 0 0 Z"/><path transform="rotate(180)" d="M0 0 C-11 -3 -13 -15 0 -18 C13 -15 11 -3 0 0 Z"/><path transform="rotate(270)" d="M0 0 C-11 -3 -13 -15 0 -18 C13 -15 11 -3 0 0 Z"/></g>
   <circle r="3.4" fill="#5a3a36"/>
   <g fill="#5a3a36" opacity=".5"><circle transform="rotate(30)" cx="0" cy="-7" r="1"/><circle transform="rotate(150)" cx="0" cy="-7" r="1"/><circle transform="rotate(270)" cx="0" cy="-7" r="1"/></g></g></g><g transform="translate(520,190) rotate(0) scale(0.85)"><g>
   <g fill="#d6856a"><path transform="rotate(0)" d="M0 0 C-11 -3 -13 -15 0 -18 C13 -15 11 -3 0 0 Z"/><path transform="rotate(90)" d="M0 0 C-11 -3 -13 -15 0 -18 C13 -15 11 -3 0 0 Z"/><path transform="rotate(180)" d="M0 0 C-11 -3 -13 -15 0 -18 C13 -15 11 -3 0 0 Z"/><path transform="rotate(270)" d="M0 0 C-11 -3 -13 -15 0 -18 C13 -15 11 -3 0 0 Z"/></g>
   <circle r="3.4" fill="#5a3a36"/>
   <g fill="#5a3a36" opacity=".5"><circle transform="rotate(30)" cx="0" cy="-7" r="1"/><circle transform="rotate(150)" cx="0" cy="-7" r="1"/><circle transform="rotate(270)" cx="0" cy="-7" r="1"/></g></g></g><g transform="translate(60,150) rotate(-14) scale(1)"><g>
   <path d="M0 34 C0 22 0 10 0 -2" stroke="#4e9e64" stroke-width="1.4" fill="none" stroke-linecap="round"/>
   <g fill="#b39ae0"><ellipse cx="-2.4" cy="-2" rx="3" ry="4.4"/><ellipse cx="2.4" cy="2.4000000000000004" rx="2.82" ry="4.136"/><ellipse cx="-2.4" cy="6.800000000000001" rx="2.64" ry="3.8720000000000003"/><ellipse cx="2.4" cy="11.200000000000001" rx="2.46" ry="3.6080000000000005"/><ellipse cx="-2.4" cy="15.600000000000001" rx="2.2800000000000002" ry="3.3440000000000003"/><ellipse cx="2.4" cy="20" rx="2.0999999999999996" ry="3.08"/><ellipse cx="-2.4" cy="24.400000000000002" rx="1.92" ry="2.8160000000000003"/><ellipse cx="2.4" cy="28.800000000000004" rx="1.7400000000000002" ry="2.5520000000000005"/></g></g></g><g transform="translate(250,520) rotate(12) scale(0.9)"><g>
   <path d="M0 34 C0 22 0 10 0 -2" stroke="#4e9e64" stroke-width="1.4" fill="none" stroke-linecap="round"/>
   <g fill="#b39ae0"><ellipse cx="-2.4" cy="-2" rx="3" ry="4.4"/><ellipse cx="2.4" cy="2.4000000000000004" rx="2.82" ry="4.136"/><ellipse cx="-2.4" cy="6.800000000000001" rx="2.64" ry="3.8720000000000003"/><ellipse cx="2.4" cy="11.200000000000001" rx="2.46" ry="3.6080000000000005"/><ellipse cx="-2.4" cy="15.600000000000001" rx="2.2800000000000002" ry="3.3440000000000003"/><ellipse cx="2.4" cy="20" rx="2.0999999999999996" ry="3.08"/><ellipse cx="-2.4" cy="24.400000000000002" rx="1.92" ry="2.8160000000000003"/><ellipse cx="2.4" cy="28.800000000000004" rx="1.7400000000000002" ry="2.5520000000000005"/></g></g></g><g transform="translate(520,540) rotate(-6) scale(1)"><g fill="#5aa663"><path d="M0 0 Q12 -22 16 -46" fill="none" stroke="#4e9e64" stroke-width="1.3"/>
   <g transform="translate(2,-2) scale(0.95)"><path d="M0 0 C7 -5 16 -4 19 2 C12 6 4 5 0 0 Z"/><path d="M-2 0 C-9 -5 -18 -4 -21 2 C-14 6 -6 5 -2 0 Z"/></g><g transform="translate(3.6,-7) scale(0.8799999999999999)"><path d="M0 0 C7 -5 16 -4 19 2 C12 6 4 5 0 0 Z"/><path d="M-2 0 C-9 -5 -18 -4 -21 2 C-14 6 -6 5 -2 0 Z"/></g><g transform="translate(5.2,-12) scale(0.8099999999999999)"><path d="M0 0 C7 -5 16 -4 19 2 C12 6 4 5 0 0 Z"/><path d="M-2 0 C-9 -5 -18 -4 -21 2 C-14 6 -6 5 -2 0 Z"/></g><g transform="translate(6.800000000000001,-17) scale(0.74)"><path d="M0 0 C7 -5 16 -4 19 2 C12 6 4 5 0 0 Z"/><path d="M-2 0 C-9 -5 -18 -4 -21 2 C-14 6 -6 5 -2 0 Z"/></g><g transform="translate(8.4,-22) scale(0.6699999999999999)"><path d="M0 0 C7 -5 16 -4 19 2 C12 6 4 5 0 0 Z"/><path d="M-2 0 C-9 -5 -18 -4 -21 2 C-14 6 -6 5 -2 0 Z"/></g><g transform="translate(10,-27) scale(0.5999999999999999)"><path d="M0 0 C7 -5 16 -4 19 2 C12 6 4 5 0 0 Z"/><path d="M-2 0 C-9 -5 -18 -4 -21 2 C-14 6 -6 5 -2 0 Z"/></g><g transform="translate(11.600000000000001,-32) scale(0.5299999999999999)"><path d="M0 0 C7 -5 16 -4 19 2 C12 6 4 5 0 0 Z"/><path d="M-2 0 C-9 -5 -18 -4 -21 2 C-14 6 -6 5 -2 0 Z"/></g><g transform="translate(13.200000000000001,-37) scale(0.4599999999999999)"><path d="M0 0 C7 -5 16 -4 19 2 C12 6 4 5 0 0 Z"/><path d="M-2 0 C-9 -5 -18 -4 -21 2 C-14 6 -6 5 -2 0 Z"/></g><g transform="translate(14.8,-42) scale(0.3899999999999999)"><path d="M0 0 C7 -5 16 -4 19 2 C12 6 4 5 0 0 Z"/><path d="M-2 0 C-9 -5 -18 -4 -21 2 C-14 6 -6 5 -2 0 Z"/></g></g></g><g transform="translate(40,360) rotate(8) scale(0.85)"><g fill="#5aa663"><path d="M0 0 Q12 -22 16 -46" fill="none" stroke="#4e9e64" stroke-width="1.3"/>
   <g transform="translate(2,-2) scale(0.95)"><path d="M0 0 C7 -5 16 -4 19 2 C12 6 4 5 0 0 Z"/><path d="M-2 0 C-9 -5 -18 -4 -21 2 C-14 6 -6 5 -2 0 Z"/></g><g transform="translate(3.6,-7) scale(0.8799999999999999)"><path d="M0 0 C7 -5 16 -4 19 2 C12 6 4 5 0 0 Z"/><path d="M-2 0 C-9 -5 -18 -4 -21 2 C-14 6 -6 5 -2 0 Z"/></g><g transform="translate(5.2,-12) scale(0.8099999999999999)"><path d="M0 0 C7 -5 16 -4 19 2 C12 6 4 5 0 0 Z"/><path d="M-2 0 C-9 -5 -18 -4 -21 2 C-14 6 -6 5 -2 0 Z"/></g><g transform="translate(6.800000000000001,-17) scale(0.74)"><path d="M0 0 C7 -5 16 -4 19 2 C12 6 4 5 0 0 Z"/><path d="M-2 0 C-9 -5 -18 -4 -21 2 C-14 6 -6 5 -2 0 Z"/></g><g transform="translate(8.4,-22) scale(0.6699999999999999)"><path d="M0 0 C7 -5 16 -4 19 2 C12 6 4 5 0 0 Z"/><path d="M-2 0 C-9 -5 -18 -4 -21 2 C-14 6 -6 5 -2 0 Z"/></g><g transform="translate(10,-27) scale(0.5999999999999999)"><path d="M0 0 C7 -5 16 -4 19 2 C12 6 4 5 0 0 Z"/><path d="M-2 0 C-9 -5 -18 -4 -21 2 C-14 6 -6 5 -2 0 Z"/></g><g transform="translate(11.600000000000001,-32) scale(0.5299999999999999)"><path d="M0 0 C7 -5 16 -4 19 2 C12 6 4 5 0 0 Z"/><path d="M-2 0 C-9 -5 -18 -4 -21 2 C-14 6 -6 5 -2 0 Z"/></g><g transform="translate(13.200000000000001,-37) scale(0.4599999999999999)"><path d="M0 0 C7 -5 16 -4 19 2 C12 6 4 5 0 0 Z"/><path d="M-2 0 C-9 -5 -18 -4 -21 2 C-14 6 -6 5 -2 0 Z"/></g><g transform="translate(14.8,-42) scale(0.3899999999999999)"><path d="M0 0 C7 -5 16 -4 19 2 C12 6 4 5 0 0 Z"/><path d="M-2 0 C-9 -5 -18 -4 -21 2 C-14 6 -6 5 -2 0 Z"/></g></g></g><g transform="translate(410,420) rotate(0) scale(1)"><g fill="#cf6a58"><circle cx="0" cy="0" r="3.1"/><circle cx="6" cy="3" r="3.1"/><circle cx="-5" cy="3" r="3.1"/><circle cx="1" cy="7" r="3.1"/><path d="M0 -3 C-3 -10 0 -14 2 -16" stroke="#4e9e64" stroke-width="1.2" fill="none"/></g></g><g transform="translate(180,400) rotate(20) scale(0.9)"><g fill="#cf6a58"><circle cx="0" cy="0" r="3.1"/><circle cx="6" cy="3" r="3.1"/><circle cx="-5" cy="3" r="3.1"/><circle cx="1" cy="7" r="3.1"/><path d="M0 -3 C-3 -10 0 -14 2 -16" stroke="#4e9e64" stroke-width="1.2" fill="none"/></g></g><g transform="translate(560,330) rotate(0) scale(1)"><g fill="none" stroke="#93a356" stroke-width="1.5" stroke-linecap="round"><path d="M0 0 C-2 -16 -6 -26 -10 -34"/><path d="M0 0 C0 -18 0 -30 0 -40"/><path d="M0 0 C2 -16 6 -26 10 -34"/><path d="M0 0 C-1 -14 1 -24 5 -30"/></g></g><g transform="translate(330,560) rotate(0) scale(0.9)"><g fill="none" stroke="#93a356" stroke-width="1.5" stroke-linecap="round"><path d="M0 0 C-2 -16 -6 -26 -10 -34"/><path d="M0 0 C0 -18 0 -30 0 -40"/><path d="M0 0 C2 -16 6 -26 10 -34"/><path d="M0 0 C-1 -14 1 -24 5 -30"/></g></g><g transform="translate(560,80) rotate(0) scale(0.8)"><g>
   <g fill="#aebbd0"><ellipse transform="rotate(0)" cx="0" cy="-12" rx="3" ry="9"/><ellipse transform="rotate(30)" cx="0" cy="-12" rx="3" ry="9"/><ellipse transform="rotate(60)" cx="0" cy="-12" rx="3" ry="9"/><ellipse transform="rotate(90)" cx="0" cy="-12" rx="3" ry="9"/><ellipse transform="rotate(120)" cx="0" cy="-12" rx="3" ry="9"/><ellipse transform="rotate(150)" cx="0" cy="-12" rx="3" ry="9"/><ellipse transform="rotate(180)" cx="0" cy="-12" rx="3" ry="9"/><ellipse transform="rotate(210)" cx="0" cy="-12" rx="3" ry="9"/><ellipse transform="rotate(240)" cx="0" cy="-12" rx="3" ry="9"/><ellipse transform="rotate(270)" cx="0" cy="-12" rx="3" ry="9"/><ellipse transform="rotate(300)" cx="0" cy="-12" rx="3" ry="9"/><ellipse transform="rotate(330)" cx="0" cy="-12" rx="3" ry="9"/></g>
   <circle r="5" fill="#e0b85a"/></g></g><g transform="translate(250,330) rotate(30) scale(1.1)"><path d="M0 0 C7 -9 20 -10 27 -2 C20 6 7 6 0 0 Z" fill="#5aa663"/><path d="M3 0 L23 -2" stroke="#2c5f3e" stroke-width="1" fill="none" opacity=".55"/></g></g><clipPath id="t"><rect width="600" height="600"/></clipPath></defs><g clip-path="url(#t)"><use href="#scene" x="-600" y="-600"/><use href="#scene" x="-600" y="0"/><use href="#scene" x="-600" y="600"/><use href="#scene" x="0" y="-600"/><use href="#scene" x="0" y="0"/><use href="#scene" x="0" y="600"/><use href="#scene" x="600" y="-600"/><use href="#scene" x="600" y="0"/><use href="#scene" x="600" y="600"/></g></svg>